<?xml version="1.0" standalone="no"?>
<!DOCTYPE svg PUBLIC "-//W3C//DTD SVG 20010904//EN"
 "http://www.w3.org/TR/2001/REC-SVG-20010904/DTD/svg10.dtd">
<svg version="1.0" xmlns="http://www.w3.org/2000/svg"
 width="700.000000pt" height="700.000000pt" viewBox="0 0 700.000000 700.000000"
 preserveAspectRatio="xMidYMid meet">
<metadata>
Created by potrace 1.14, written by Peter Selinger 2001-2017
</metadata>
<g transform="translate(0.000000,700.000000) scale(0.100000,-0.100000)"
fill="#000000" stroke="none">
<path d="M3680 6439 c-724 -72 -1519 -396 -2381 -972 l-196 -131 -2 -650 c0
-358 -3 -718 -6 -801 -3 -82 -7 -792 -11 -1577 -5 -1374 -5 -1426 13 -1432 28
-8 295 -52 523 -85 303 -44 702 -90 1145 -131 347 -32 1035 -43 1330 -21 436
33 769 104 991 211 88 43 195 134 268 229 235 306 393 891 460 1701 60 721 50
1819 -24 2624 -8 89 -12 103 -46 155 -97 147 -277 331 -448 458 -290 216 -614
349 -996 408 -126 19 -485 28 -620 14z m595 -85 c507 -70 953 -304 1280 -672
136 -153 153 -186 165 -313 52 -567 76 -1592 50 -2144 -64 -1340 -300 -2105
-714 -2309 -221 -109 -572 -181 -1009 -207 -250 -15 -966 -6 -1227 15 -505 42
-1466 159 -1649 202 l-24 5 6 1882 c4 1035 10 2019 14 2186 l6 304 186 122
c871 572 1681 894 2371 944 155 12 400 5 545 -15z"/>
<path d="M3751 5888 c-80 -11 -306 -87 -426 -143 -327 -152 -751 -430 -1275
-836 l-165 -128 -52 -138 c-229 -602 -401 -1264 -463 -1777 -31 -252 -29 -593
4 -784 50 -289 165 -507 340 -646 129 -102 383 -211 631 -269 159 -38 363 -65
580 -78 596 -34 1404 92 1800 282 119 56 150 84 170 152 32 106 114 701 164
1187 77 735 94 1155 71 1740 -12 323 -42 478 -117 623 -46 87 -89 122 -183
149 -67 20 -82 29 -141 87 -36 37 -112 134 -169 216 -213 307 -326 377 -605
374 -55 -1 -129 -6 -164 -11z m334 -64 c132 -32 247 -137 405 -369 114 -167
188 -245 256 -270 155 -57 158 -59 191 -108 39 -59 75 -169 105 -320 20 -102
22 -151 26 -567 5 -610 -10 -894 -84 -1558 -66 -599 -134 -1067 -162 -1117
-48 -84 -465 -220 -892 -290 -270 -44 -416 -56 -712 -62 -376 -7 -587 11 -863
77 -222 53 -459 150 -576 236 -405 297 -470 1041 -187 2159 78 309 220 759
320 1015 39 98 26 86 363 340 608 457 1070 723 1420 816 162 43 267 48 390 18z"/>
<path d="M3210 4703 c-127 -22 -313 -97 -412 -166 -87 -62 -187 -170 -222
-242 -48 -99 -56 -165 -50 -400 4 -121 -1 -420 -10 -705 -21 -673 -39 -1545
-31 -1580 5 -24 17 -33 78 -58 103 -43 190 -63 272 -64 118 0 184 39 226 136
19 43 23 67 22 151 -1 125 -16 217 -98 625 -70 349 -92 530 -63 530 23 0 149
-137 184 -200 92 -166 130 -335 159 -725 26 -339 36 -389 84 -415 45 -23 60
-17 486 190 355 174 421 376 212 655 -24 33 -104 123 -177 200 -222 236 -530
590 -519 599 2 2 50 8 106 15 327 39 559 154 640 319 34 70 42 172 19 262 -30
119 -189 423 -304 584 -108 149 -247 256 -372 285 -44 10 -180 13 -230 4z
m209 -74 c169 -39 310 -186 485 -503 83 -151 134 -270 147 -343 45 -240 -162
-403 -579 -458 -62 -8 -144 -15 -183 -15 -38 0 -69 -3 -69 -6 0 -17 99 -154
186 -259 91 -108 157 -182 489 -545 147 -160 194 -245 194 -350 1 -113 -87
-207 -284 -303 -352 -173 -416 -201 -425 -186 -18 28 -29 108 -45 315 -19 260
-39 407 -70 529 -63 250 -239 495 -356 495 -45 0 -60 -17 -69 -77 -11 -71 5
-190 75 -543 79 -395 95 -500 95 -610 0 -105 -25 -165 -80 -193 -54 -28 -180
-18 -294 23 l-88 33 7 371 c3 204 13 607 21 896 7 289 14 642 15 785 0 143 4
319 8 390 6 120 9 136 39 197 60 123 203 233 392 305 153 57 289 75 389 52z"/>
<path d="M3342 4324 c-51 -13 -128 -40 -170 -59 l-77 -36 -21 -102 c-12 -56
-42 -155 -68 -220 -54 -139 -58 -186 -21 -215 24 -19 242 -77 379 -102 86 -15
192 -13 225 5 16 8 31 25 35 39 12 48 8 554 -5 594 -26 80 -76 122 -146 122
-21 -1 -80 -12 -131 -26z m174 -52 c6 -4 19 -23 30 -42 15 -30 19 -66 22 -243
2 -114 1 -237 -3 -272 l-7 -65 -69 0 c-114 0 -459 80 -459 106 0 8 18 58 40
112 35 86 66 191 85 285 7 35 70 65 208 102 96 25 135 30 153 17z"/>
</g>
</svg>
